# xmcd
#
# Track frame offsets: 
#        150
#        15322
#        33540
#        48432
#        64702
#        85885
#        99622
#        112070
#        128942
#        142950
#        157427
#        171817
#        187007
#        209575
#        234335
#        250455
#        262057
#        275282
#        293207
#        311367
#
# Disc length: 4294 seconds
#
# Revision: 0
# Processed by: cddbd v1.5.2PL0 Copyright (c) Steve Scherf et al.
# Submitted via: ExactAudioCopy v1.0b1
#
DISCID=2d10c414
DTITLE=Various Artist - Cinta 101, Disc 2
DYEAR=2009
DGENRE=Melayu
TTITLE0=Ku Ingin Selalu Di Samping Mu (Uji Rashid)
TTITLE1=Pengemis Cinta (Ella)
TTITLE2=Mawar Ku (Eddie Ahmad and Hamidah Ahmad)
TTITLE3=Bukan Kemahuan Fikiran (Fauziah Latiff)
TTITLE4=Jangan Lafazkan (KRU)
TTITLE5=Gerimis Di Lautan (Sudirman)
TTITLE6=Hari Ini Dan Semalam (J. Mizan)
TTITLE7=Siapa Dia Sebelum Daku (Roy and Fran)
TTITLE8=Sayang (Black Dog Bone)
TTITLE9=Perpisahan Tanpa Rela Mu (Jamal Abdillah)
TTITLE10=Ku Ingin Bahagia (Rina Rahman)
TTITLE11=Derita Hati Ku Tanggung Sendiri (Gaya Zakry)
TTITLE12=Selingkar Kasih (Rem)
TTITLE13=Setia Kasih (Haleeda)
TTITLE14=Warisan Wanita Terakhir (Teacher's Pet)
TTITLE15=Suara Hati (DJ Dave)
TTITLE16=Rindu Bayangan (Carefree)
TTITLE17=Satu Penantian (Dwen)
TTITLE18=Aku Masih Seperti Dulu (Fauziah Latiff)
TTITLE19=Singgahlah Sayang (Sharifah Aini)
EXTD=
EXTT0=
EXTT1=
EXTT2=
EXTT3=
EXTT4=
EXTT5=
EXTT6=
EXTT7=
EXTT8=
EXTT9=
EXTT10=
EXTT11=
EXTT12=
EXTT13=
EXTT14=
EXTT15=
EXTT16=
EXTT17=
EXTT18=
EXTT19=
PLAYORDER=
